<svg width="484" height="250" viewBox="0 0 484 250" fill="none" xmlns="http://www.w3.org/2000/svg">
<path d="M1.35 188.749H250.63" stroke="#EAEEF1" stroke-width="2.1" stroke-linecap="round" stroke-linejoin="round"/>
<rect x="260" y="110.762" width="102.2" height="6.99438" fill="#EAEEF1"/>
<rect x="260" y="71.5928" width="102.2" height="6.99438" fill="#EAEEF1"/>
<rect x="260" y="150.63" width="102.2" height="6.99438" fill="#EAEEF1"/>
<rect x="249.5" y="78.5879" width="126" height="31.4747" rx="4.2" stroke="#EAEEF1" stroke-width="2.1" stroke-linecap="round" stroke-linejoin="round"/>
<rect x="249.5" y="39.4189" width="126" height="31.4747" rx="4.2" stroke="#EAEEF1" stroke-width="2.1" stroke-linecap="round" stroke-linejoin="round"/>
<rect x="249.5" y="118.455" width="126" height="31.4747" rx="4.2" stroke="#EAEEF1" stroke-width="2.1" stroke-linecap="round" stroke-linejoin="round"/>
<rect x="249.5" y="157.624" width="126" height="31.4747" rx="4.2" stroke="#EAEEF1" stroke-width="2.1" stroke-linecap="round" stroke-linejoin="round"/>
<path fill-rule="evenodd" clip-rule="evenodd" d="M260 145.036C260 143.49 261.254 142.236 262.8 142.236H320.2C321.746 142.236 323 143.49 323 145.036V149.743H260V145.036Z" stroke="#EAEEF1" stroke-width="2.1" stroke-linecap="round" stroke-linejoin="round"/>
<path fill-rule="evenodd" clip-rule="evenodd" d="M260 105.168C260 103.622 261.254 102.368 262.8 102.368H320.2C321.746 102.368 323 103.622 323 105.168V109.875H260V105.168Z" stroke="#EAEEF1" stroke-width="2.1" stroke-linecap="round" stroke-linejoin="round"/>
<path fill-rule="evenodd" clip-rule="evenodd" d="M260 66.0002C260 64.4538 261.254 63.2002 262.8 63.2002H320.2C321.746 63.2002 323 64.4538 323 66.0002V70.7069H260V66.0002Z" stroke="#EAEEF1" stroke-width="2.1" stroke-linecap="round" stroke-linejoin="round"/>
<path fill-rule="evenodd" clip-rule="evenodd" d="M260 184.205C260 182.659 261.254 181.405 262.8 181.405H320.2C321.746 181.405 323 182.659 323 184.205V188.912H260V184.205Z" stroke="#EAEEF1" stroke-width="2.1" stroke-linecap="round" stroke-linejoin="round"/>
<ellipse cx="260" cy="169.514" rx="2.1" ry="2.09831" fill="#FF7373"/>
<ellipse cx="260" cy="130.346" rx="2.1" ry="2.09831" fill="#FF7373"/>
<ellipse cx="260" cy="91.8766" rx="2.1" ry="2.09831" fill="#FF7373"/>
<ellipse cx="260" cy="52.7087" rx="2.1" ry="2.09831" fill="#FF7373"/>
<rect x="327.9" y="90.4775" width="23.8" height="2.79775" rx="1.39888" fill="#EAEEF1"/>
<rect x="327.9" y="51.3096" width="23.8" height="2.79775" rx="1.39888" fill="#EAEEF1"/>
<rect x="327.9" y="129.646" width="23.8" height="2.79775" rx="1.39888" fill="#EAEEF1"/>
<rect x="327.9" y="168.814" width="23.8" height="2.79775" rx="1.39888" fill="#EAEEF1"/>
<ellipse cx="267" cy="169.514" rx="2.1" ry="2.09831" fill="#5A83A1"/>
<ellipse cx="267" cy="130.346" rx="2.1" ry="2.09831" fill="#5A83A1"/>
<ellipse cx="267" cy="91.8766" rx="2.1" ry="2.09831" fill="#5A83A1"/>
<ellipse cx="267" cy="52.7087" rx="2.1" ry="2.09831" fill="#5A83A1"/>
<ellipse cx="361.85" cy="91.5266" rx="3.85" ry="3.84691" stroke="#EAEEF1" stroke-width="2.1"/>
<ellipse cx="361.85" cy="52.3586" rx="3.85" ry="3.84691" stroke="#EAEEF1" stroke-width="2.1"/>
<ellipse cx="361.85" cy="130.696" rx="3.85" ry="3.84691" stroke="#EAEEF1" stroke-width="2.1"/>
<ellipse cx="361.85" cy="169.864" rx="3.85" ry="3.84691" stroke="#EAEEF1" stroke-width="2.1"/>
<ellipse cx="274" cy="169.514" rx="2.1" ry="2.09831" fill="#5A83A1"/>
<ellipse cx="274" cy="130.346" rx="2.1" ry="2.09831" fill="#5A83A1"/>
<ellipse cx="274" cy="91.8766" rx="2.1" ry="2.09831" fill="#5A83A1"/>
<ellipse cx="274" cy="52.7087" rx="2.1" ry="2.09831" fill="#5A83A1"/>
<path d="M376.026 179.193C376.026 179.193 380.415 179.193 384.372 179.193C388.329 179.193 390.9 179.144 390.9 184.079C390.9 192.086 389.877 196.441 394.223 196.441C398.57 196.441 425.31 196.441 430.75 196.441C435.534 196.441 438.588 199.036 438.588 207.185C438.588 215.334 433.808 215.861 430.75 215.861C427.222 215.861 429.869 215.861 424.864 215.861C419.859 215.861 414.605 217.064 414.605 225.475C414.605 233.886 421.52 235.176 422.263 235.176C423.007 235.176 450.944 235.176 450.944 235.176" stroke="#EAEEF1" stroke-width="2.1" stroke-linecap="round" stroke-linejoin="round"/>
<ellipse cx="458.897" cy="234.912" rx="8.49703" ry="10.8413" transform="rotate(-180 458.897 234.912)" stroke="#EAEEF1" stroke-width="2.1" stroke-linecap="round" stroke-linejoin="round"/>
<rect x="467.2" y="221.973" width="7.7" height="26.5787" rx="2.1" stroke="#EAEEF1" stroke-width="2.1" stroke-linecap="round" stroke-linejoin="round"/>
<rect x="443.4" y="68.7949" width="37.8" height="37.0702" rx="2.1" stroke="#EAEEF1" stroke-width="2.1" stroke-linecap="round" stroke-linejoin="round"/>
<ellipse cx="461.95" cy="86.6306" rx="11.55" ry="11.5407" stroke="#5A83A1" stroke-width="2.1" stroke-linecap="round" stroke-linejoin="round"/>
<path d="M474.9 228.268H482.25C483.217 228.268 484 229.051 484 230.018V230.714C484 231.681 483.217 232.464 482.25 232.464H474.9V228.268Z" fill="#EAEEF1"/>
<path d="M474.9 237.36H482.25C483.217 237.36 484 238.144 484 239.11V239.807C484 240.773 483.217 241.557 482.25 241.557H474.9V237.36Z" fill="#EAEEF1"/>
<ellipse cx="458.8" cy="86.2817" rx="1.4" ry="1.39888" fill="#5A83A1"/>
<ellipse cx="465.1" cy="86.2817" rx="1.4" ry="1.39888" fill="#5A83A1"/>
<path fill-rule="evenodd" clip-rule="evenodd" d="M72.4013 178.607H258.6C258.6 178.607 255.509 188.4 247.843 188.4C240.176 188.4 90.2364 188.4 82.2602 188.4C74.284 188.4 72.4013 178.607 72.4013 178.607Z" fill="white" stroke="#5A83A1" stroke-width="1.764" stroke-linecap="round" stroke-linejoin="round"/>
<path fill-rule="evenodd" clip-rule="evenodd" d="M90.5996 92.669C90.5996 86.8236 95.3382 82.085 101.184 82.085H227.716C233.561 82.085 238.3 86.8236 238.3 92.669V178.607H90.5996V92.669Z" stroke="#5A83A1" stroke-width="1.764" stroke-linecap="round" stroke-linejoin="round"/>
<path fill-rule="evenodd" clip-rule="evenodd" d="M98.2998 101.762C98.2998 95.9164 103.038 91.1777 108.884 91.1777H221.416C227.261 91.1777 232 95.9164 232 101.762V178.608H98.2998V101.762Z" stroke="#5A83A1" stroke-width="1.764" stroke-linecap="round" stroke-linejoin="round"/>
<path fill-rule="evenodd" clip-rule="evenodd" d="M164.1 92.0371H220.614C226.46 92.0371 231.198 96.7757 231.198 102.621V177.254H164.1V92.0371ZM176 102.368H220.1V119.854H176V102.368ZM220.1 160.422H176V166.017H220.1V160.422ZM176 140.837H199.1V146.433H176V140.837ZM213.1 150.629H176V156.225H213.1V150.629Z" fill="#EAEEF1"/>
<path d="M401.05 188.749H450.23" stroke="#EAEEF1" stroke-width="2.1" stroke-linecap="round" stroke-linejoin="round"/>
<path d="M5.35 181.6H27.2297" stroke="#EAEEF1" stroke-width="2.1" stroke-linecap="round" stroke-linejoin="round"/>
<path d="M45.3496 208.6H117.23" stroke="#EAEEF1" stroke-width="2.1" stroke-linecap="round" stroke-linejoin="round"/>
<path d="M432.55 181.754H454.43" stroke="#FFCD08" stroke-width="2.1" stroke-linecap="round" stroke-linejoin="round"/>
<path d="M163.617 35.3125V6.50879H322.777V39.8765" stroke="#F15D5D" stroke-width="1.4" stroke-linejoin="round" stroke-dasharray="1.4 1.4 1.4"/>
<path fill-rule="evenodd" clip-rule="evenodd" d="M162.666 32.5645C163.138 31.7836 164.273 31.7879 164.74 32.5724L173.266 46.8991C173.746 47.7054 173.165 48.7274 172.227 48.7274H155.025C154.083 48.7274 153.502 47.6974 153.99 46.8912L162.666 32.5645ZM162.926 36.0428C162.926 35.7088 163.197 35.438 163.531 35.438H163.739C164.073 35.438 164.343 35.7088 164.343 36.0428V43.5517C164.343 43.8857 164.073 44.1565 163.739 44.1565H163.531C163.197 44.1565 162.926 43.8857 162.926 43.5517V36.0428ZM163.531 45.9296C163.197 45.9296 162.926 46.2004 162.926 46.5344V46.7779C162.926 47.1119 163.197 47.3827 163.531 47.3827H163.739C164.073 47.3827 164.343 47.1119 164.343 46.7779V46.5344C164.343 46.2004 164.073 45.9296 163.739 45.9296H163.531Z" fill="#F15D5D"/>
<path d="M163.586 48.6436V81.5132" stroke="#F15D5D" stroke-width="1.4" stroke-linejoin="round" stroke-dasharray="1.4 1.4 1.4"/>
<rect x="176" y="140.838" width="25.9" height="5.59551" fill="#5A83A1"/>
<path fill-rule="evenodd" clip-rule="evenodd" d="M176 150.63H213.1V156.225H176V150.63Z" fill="#5A83A1"/>
<ellipse cx="380.43" cy="2.84108" rx="2.83043" ry="2.84108" fill="#EAEEF1"/>
<ellipse cx="432.301" cy="44.1765" rx="2.20145" ry="2.20973" fill="#FFCD08"/>
<ellipse cx="62.7015" cy="146.307" rx="2.20145" ry="2.20973" fill="#EAEEF1"/>
<ellipse cx="365.558" cy="7.55762" rx="1.25797" ry="1.2627" fill="#EAEEF1"/>
<ellipse cx="34.559" cy="136.379" rx="3.45942" ry="3.47243" fill="#FFCD08"/>
<path fill-rule="evenodd" clip-rule="evenodd" d="M56.9917 110.775L59.1137 112.897L58.4257 113.585L56.3037 111.463L54.1798 113.587L53.4638 112.871L55.5877 110.747L53.476 108.635L54.164 107.947L56.2757 110.059L58.4096 107.925L59.1255 108.641L56.9917 110.775Z" fill="#FFCD08"/>
<path fill-rule="evenodd" clip-rule="evenodd" d="M430.654 139.45L432.351 141.147L431.801 141.698L430.103 140L428.404 141.699L427.831 141.127L429.531 139.427L427.841 137.738L428.392 137.188L430.081 138.877L431.788 137.17L432.361 137.743L430.654 139.45Z" fill="#FFCD08"/>
<path fill-rule="evenodd" clip-rule="evenodd" d="M404.576 35.124L406.008 36.5556L405.526 37.0369L404.095 35.6053L402.609 37.0911L402.126 36.6081L403.612 35.1223L402.187 33.6977L402.668 33.2164L404.093 34.641L405.586 33.1483L406.069 33.6312L404.576 35.124Z" fill="#EAEEF1"/>
<path d="M377.6 32.7788L379.986 27.5283" stroke="#5A83A1" stroke-width="2.1" stroke-linecap="round" stroke-linejoin="round"/>
<path d="M380.4 34.5674L384.908 31.0254" stroke="#5A83A1" stroke-width="2.1" stroke-linecap="round" stroke-linejoin="round"/>
<path d="M382.5 38.0198H386.682" stroke="#5A83A1" stroke-width="2.1" stroke-linecap="round" stroke-linejoin="round"/>
<path d="M92.6826 79.6411L90.2961 74.3906" stroke="#5A83A1" stroke-width="2.1" stroke-linecap="round" stroke-linejoin="round"/>
<path d="M89.8828 81.4297L85.3748 77.8877" stroke="#5A83A1" stroke-width="2.1" stroke-linecap="round" stroke-linejoin="round"/>
<path d="M87.7822 84.8821H83.5998" stroke="#5A83A1" stroke-width="2.1" stroke-linecap="round" stroke-linejoin="round"/>
</svg>
